<svg xmlns="http://www.w3.org/2000/svg" width="70" height="48" fill="none"><rect width="70" height="48" fill="#F8EDE7" rx="8"/><path fill="#ED0006" d="M44.352 10C51.89 10 58 16.181 58 23.806c0 7.624-6.11 13.806-13.648 13.806-3.378 0-6.469-1.243-8.852-3.3a13.501 13.501 0 0 1-8.852 3.3C19.11 37.612 13 31.43 13 23.806 13 16.18 19.11 10 26.648 10c3.377 0 6.469 1.241 8.852 3.298A13.502 13.502 0 0 1 44.352 10Z"/><path fill="#F9A000" d="M44.352 10C51.89 10 58 16.181 58 23.806c0 7.624-6.11 13.806-13.648 13.806-3.378 0-6.469-1.243-8.852-3.3a13.84 13.84 0 0 0 4.795-10.506c0-4.208-1.86-7.976-4.795-10.508A13.502 13.502 0 0 1 44.352 10Z"/><path fill="#FF5E00" d="M35.5 13.298a13.84 13.84 0 0 1 4.795 10.508A13.84 13.84 0 0 1 35.5 34.313a13.84 13.84 0 0 1-4.795-10.507c0-4.208 1.86-7.976 4.795-10.508Z"/></svg>