<svg xmlns="http://www.w3.org/2000/svg" width="30" height="30" fill="none"><g clip-path="url(#a)"><rect width="30" height="30" fill="#fff" rx="15"/><path fill="#4B465C" fill-rule="evenodd" d="M7.366 9.49a.922.922 0 0 1 .332-.415.883.883 0 0 1 .5-.156h9.01c.827 0 1.647.168 2.413.494.765.326 1.46.803 2.046 1.406a6.503 6.503 0 0 1 1.366 2.104 6.648 6.648 0 0 1 0 4.965 6.503 6.503 0 0 1-1.367 2.104 6.295 6.295 0 0 1-2.045 1.406 6.155 6.155 0 0 1-2.414.494H9.1a.888.888 0 0 1-.637-.271.94.94 0 0 1-.264-.656.94.94 0 0 1 .264-.655.888.888 0 0 1 .637-.271h8.108c1.195 0 2.34-.489 3.185-1.357a4.701 4.701 0 0 0 1.32-3.277 4.701 4.701 0 0 0-1.32-3.276 4.442 4.442 0 0 0-3.185-1.357h-6.834l1.615 1.662a.94.94 0 0 1 .253.652.94.94 0 0 1-.264.647.888.888 0 0 1-.629.271.888.888 0 0 1-.634-.26L7.561 10.5a.951.951 0 0 1-.196-1.01Z" clip-rule="evenodd"/></g><defs><clipPath id="a"><rect width="30" height="30" fill="#fff" rx="15"/></clipPath></defs></svg>