<svg xmlns="http://www.w3.org/2000/svg" width="70" height="48" fill="none"><rect width="70" height="48" fill="#E8F0F4" rx="8"/><path fill="#253B80" d="m30.471 35.538.43-2.725-.956-.023h-4.563l3.17-20.108a.26.26 0 0 1 .258-.22h7.695c2.554 0 4.317.532 5.238 1.581.431.492.706 1.007.839 1.573.14.593.142 1.303.005 2.169l-.01.063v.554l.432.245c.364.192.652.413.874.666.369.42.608.955.709 1.59.104.652.07 1.428-.101 2.306-.197 1.01-.516 1.891-.945 2.611a5.375 5.375 0 0 1-1.497 1.64c-.571.406-1.25.714-2.017.91-.743.194-1.59.292-2.52.292h-.599c-.428 0-.844.154-1.17.43a1.812 1.812 0 0 0-.61 1.09l-.046.245-.758 4.803-.034.176c-.009.056-.025.084-.047.103a.129.129 0 0 1-.08.029h-3.697Z"/><path fill="#179BD7" d="M43.416 17.913c-.023.147-.05.297-.079.45-1.015 5.21-4.486 7.01-8.92 7.01H32.16c-.543 0-1 .394-1.084.93l-1.156 7.33-.327 2.077a.578.578 0 0 0 .57.668h4.004a.963.963 0 0 0 .951-.812l.04-.204.754-4.784.048-.262a.963.963 0 0 1 .952-.814h.598c3.88 0 6.916-1.575 7.804-6.133.37-1.904.179-3.493-.802-4.611a3.825 3.825 0 0 0-1.096-.845Z"/><path fill="#222D65" d="M42.352 17.488a7.898 7.898 0 0 0-.987-.219 12.532 12.532 0 0 0-1.99-.145h-6.03a.961.961 0 0 0-.95.814l-1.284 8.126-.037.237a1.096 1.096 0 0 1 1.083-.929h2.258c4.434 0 7.905-1.8 8.92-7.01.03-.153.056-.304.079-.45a5.408 5.408 0 0 0-.835-.352 7.08 7.08 0 0 0-.227-.072Z"/><path fill="#253B80" d="M32.397 17.938a.96.96 0 0 1 .951-.813h6.031c.715 0 1.382.047 1.99.146a8.015 8.015 0 0 1 1.215.29c.3.098.577.216.834.351.302-1.925-.002-3.236-1.043-4.423-1.148-1.307-3.219-1.866-5.87-1.866h-7.694a1.1 1.1 0 0 0-1.087.93l-3.205 20.314a.661.661 0 0 0 .652.765h4.75l1.193-7.568 1.283-8.126Z"/></svg>