<svg xmlns="http://www.w3.org/2000/svg" width="70" height="48" fill="none"><rect width="70" height="48" fill="#EEEDF8" rx="8"/><path fill="#6461FC" d="M45.006 17.88c2.479.001 4.817 2.234 4.83 6.332 0 4.48-2.309 6.515-4.845 6.515-1.246 0-1.997-.523-2.507-.89l-.014 3.999-3.542.749V18.106h3.117l.183.877c.496-.452 1.39-1.102 2.778-1.102Zm-30.218 0c1.176 0 2.338.185 3.514.651v3.32c-1.077-.579-2.437-.904-3.514-.904-.75 0-1.204.213-1.204.764 0 1.582 5.398.834 5.412 5.045 0 2.53-2.026 3.985-4.973 3.985-1.218 0-2.55-.24-3.867-.805v-3.364c1.19.65 2.692 1.13 3.867 1.13.794 0 1.36-.211 1.36-.861 0-1.682-5.383-1.06-5.383-4.961 0-2.501 1.912-3.999 4.788-4Zm8.358.241h2.692v3.01h-2.692v5.017c0 2.09 2.238 1.442 2.692 1.258v2.868c-.468.255-1.317.467-2.479.467-2.096 0-3.67-1.54-3.67-3.632l.015-11.32 3.457-.734-.015 3.066Zm32.74-.24c3.357 0 5.114 2.855 5.114 6.473 0 .339-.028 1.074-.028 1.257h-6.928c.156 1.668 1.374 2.148 2.748 2.148 1.402 0 2.508-.297 3.472-.777v2.827c-.964.537-2.24.918-3.925.918-3.457 0-5.865-2.148-5.865-6.402 0-3.59 2.04-6.444 5.412-6.444Zm-25.642 1.286c.836-1.526 2.493-1.216 2.946-1.046v3.25c-.44-.155-1.855-.352-2.691.736v8.38h-3.541V18.12h3.06l.226 1.046Zm7.366 11.32h-3.555V18.12h3.555v12.365Zm6.545-9.468c-.807 0-1.317.282-1.685.692l.013 5.242c.34.367.837.665 1.672.665 1.304 0 2.182-1.414 2.182-3.307 0-1.852-.893-3.292-2.182-3.292Zm11.716-.269c-.892 0-1.869.664-1.869 2.26h3.654c0-1.596-.92-2.26-1.785-2.26Zm-18.26-4.466-3.556.763v-2.883l3.555-.749v2.87Z"/></svg>